<?xml version="1.0" standalone="no"?>
<!DOCTYPE svg PUBLIC "-//W3C//DTD SVG 20010904//EN"
 "http://www.w3.org/TR/2001/REC-SVG-20010904/DTD/svg10.dtd">
<svg version="1.0" xmlns="http://www.w3.org/2000/svg"
 width="542.000000pt" height="889.000000pt" viewBox="0 0 542.000000 889.000000"
 preserveAspectRatio="xMidYMid meet">
<metadata>
Created by potrace 1.16, written by Peter Selinger 2001-2019
</metadata>
<g transform="translate(0.000000,889.000000) scale(0.100000,-0.100000)"
fill="#000000" stroke="none">
<path d="M4876 8729 c-24 -19 -212 -237 -230 -266 -5 -10 3 -11 36 -7 24 3 60
2 79 -4 l36 -10 76 108 c92 129 101 150 81 179 -19 27 -44 27 -78 0z"/>
<path d="M3262 8649 c-72 -28 -163 -114 -192 -181 -91 -211 38 -444 270 -488
99 -19 231 30 305 113 60 66 85 137 85 241 0 72 -4 90 -31 144 -37 76 -111
144 -185 171 -73 28 -180 27 -252 0z m125 -81 c30 -25 -5 -95 -60 -121 -51
-25 -93 -22 -112 7 -47 72 103 172 172 114z"/>
<path d="M4959 8543 l-118 -118 46 -40 46 -39 108 114 c60 63 112 126 115 139
10 34 -7 55 -45 59 -30 3 -43 -7 -152 -115z"/>
<path d="M4425 8638 c-45 -131 -73 -193 -113 -256 -62 -97 -67 -116 -83 -287
l-13 -140 -48 -52 c-83 -87 -187 -161 -399 -284 -268 -154 -341 -210 -447
-336 -93 -110 -81 -103 -289 -188 -51 -21 -93 -42 -93 -48 0 -5 39 -81 86
-168 84 -156 133 -272 134 -316 0 -13 3 -23 8 -23 4 0 63 45 131 100 84 67
160 118 240 159 237 124 295 173 559 480 98 113 222 251 277 307 98 99 102
101 185 127 110 35 161 66 293 176 59 50 160 126 225 170 132 89 155 110 150
142 -7 48 -32 47 -135 -6 -53 -27 -111 -60 -129 -71 l-32 -22 -4 73 c-4 95
-37 147 -118 188 -47 24 -64 28 -120 25 -53 -3 -73 -9 -107 -33 -63 -45 -87
-87 -91 -160 -2 -35 1 -80 8 -100 16 -49 75 -113 125 -137 l40 -19 -48 4 c-93
9 -165 85 -189 199 -14 65 5 157 52 261 40 89 46 129 25 183 -21 54 -68 85
-80 52z"/>
<path d="M5183 8469 c-11 -4 -69 -42 -127 -85 -90 -65 -106 -80 -100 -97 4
-12 9 -42 13 -68 l6 -46 129 107 c129 106 154 135 143 164 -9 22 -39 35 -64
25z"/>
<path d="M4264 7223 c-141 -173 -486 -510 -714 -699 -205 -170 -405 -329 -447
-355 -13 -8 -23 -16 -23 -19 0 -3 65 -3 145 0 l145 5 146 134 c255 234 531
555 709 826 103 158 139 215 132 215 -2 0 -44 -48 -93 -107z"/>
<path d="M2770 7005 c-103 -55 -239 -109 -344 -136 -311 -81 -454 -233 -596
-634 -27 -77 -49 -128 -49 -114 -2 55 41 257 77 363 l38 112 -191 -139 c-104
-77 -200 -147 -212 -156 -28 -20 -28 -22 4 -100 26 -61 28 -76 28 -206 0 -117
-4 -153 -24 -220 -12 -44 -26 -83 -30 -87 -3 -4 -2 29 3 73 13 107 -3 231 -43
334 l-31 80 -77 40 -78 40 -12 97 c-30 238 -102 385 -234 478 -88 62 -156 83
-269 83 -116 1 -180 -13 -288 -65 -92 -43 -189 -130 -235 -209 -65 -113 -84
-259 -52 -397 18 -78 37 -115 86 -170 27 -31 40 -56 43 -85 3 -23 9 -71 13
-107 l8 -65 42 -6 c38 -5 53 -16 149 -118 110 -115 144 -141 189 -141 127 0
336 227 381 413 l12 52 1 -60 c1 -76 -19 -150 -64 -241 -19 -40 -35 -74 -35
-77 0 -3 29 -22 64 -42 71 -40 171 -65 261 -65 72 0 63 -13 -20 -28 -158 -29
-243 -24 -328 20 -22 11 -45 17 -52 14 -20 -7 -238 -341 -262 -401 -45 -109
-53 -199 -27 -323 15 -75 54 -165 148 -341 25 -46 71 -154 102 -240 32 -86 61
-160 64 -164 4 -5 21 14 39 41 83 129 258 250 416 286 25 6 20 1 -25 -29 -123
-82 -210 -169 -292 -291 l-38 -57 21 -36 c36 -61 154 -213 223 -288 105 -113
193 -140 283 -89 86 49 337 252 391 316 62 73 186 259 282 425 35 61 65 112
67 114 2 2 40 -14 86 -37 97 -48 156 -97 228 -190 29 -37 55 -70 59 -75 3 -4
103 88 221 204 249 245 364 348 486 435 96 69 282 169 381 204 34 13 62 24 62
26 0 1 -30 38 -66 81 -56 67 -682 723 -689 723 -2 0 12 -47 31 -104 50 -154
82 -286 104 -421 17 -109 36 -305 24 -245 -68 317 -190 616 -387 943 l-96 158
57 45 c31 24 120 88 197 141 77 53 144 100 148 104 10 8 -309 580 -323 579 -3
-1 -25 -12 -50 -25z m14 -1491 c9 -23 1 -31 -57 -60 -29 -15 -89 -53 -134 -85
-45 -32 -86 -59 -91 -59 -6 0 -33 -18 -61 -40 -28 -22 -51 -37 -51 -32 0 18
100 130 159 178 72 57 174 114 207 114 12 0 25 -7 28 -16z m-373 -25 c36 -36
23 -107 -39 -209 -33 -55 -65 -128 -92 -210 -46 -140 -77 -194 -177 -301 -119
-128 -240 -236 -429 -382 -139 -107 -221 -196 -268 -290 -26 -53 -36 -65 -36
-46 0 67 57 199 123 282 l30 38 -18 42 c-51 127 -124 321 -121 324 2 2 70 -12
152 -31 278 -64 253 -62 310 -33 60 31 173 110 236 166 65 58 113 158 133 279
19 110 21 117 74 207 22 38 48 92 57 120 25 76 30 79 65 44z m524 -60 c9 -27
4 -31 -88 -69 -43 -18 -115 -57 -160 -86 -69 -46 -127 -68 -127 -48 0 33 100
114 222 179 93 50 143 58 153 24z m45 -125 c18 -21 0 -36 -75 -63 -33 -12
-102 -45 -153 -72 -52 -28 -96 -48 -100 -45 -18 19 130 131 226 172 68 28 85
29 102 8z m-5 -194 c0 -13 -122 -53 -230 -76 l-30 -6 20 21 c11 11 56 34 100
51 85 31 140 35 140 10z"/>
<path d="M3790 4884 c-192 -64 -394 -172 -537 -287 -120 -95 -356 -351 -549
-592 -103 -129 -291 -384 -479 -650 -197 -279 -240 -345 -265 -413 -28 -74
-38 -228 -29 -442 5 -91 11 -514 15 -941 l7 -777 -21 -34 c-34 -55 -151 -161
-244 -222 -101 -66 -157 -92 -313 -146 -182 -62 -225 -91 -225 -151 0 -67 72
-106 224 -119 122 -11 969 -2 1044 11 101 17 151 81 152 192 0 32 -17 131 -37
220 -32 143 -37 178 -36 292 0 168 32 347 119 677 133 505 141 615 68 986 -13
68 -24 134 -24 147 0 26 19 41 405 328 326 241 553 420 686 538 150 133 151
133 64 29 -148 -176 -330 -364 -531 -547 l-199 -182 3 -43 c5 -60 68 -457 88
-548 22 -102 61 -174 131 -241 32 -31 207 -166 388 -299 672 -494 841 -633
891 -732 16 -32 24 -64 24 -101 0 -51 -45 -233 -88 -356 l-18 -54 -107 -56
c-58 -31 -120 -69 -137 -86 -33 -32 -53 -88 -48 -138 l3 -32 235 0 c223 1 238
2 295 24 80 32 146 100 219 226 84 143 117 186 241 315 114 119 139 157 151
228 16 98 -73 205 -252 303 -169 93 -338 271 -510 534 -237 364 -357 483 -598
590 l-88 39 7 101 c38 570 92 1115 126 1263 5 24 32 87 59 140 61 120 85 188
100 289 30 191 -33 427 -156 589 -47 62 -137 164 -144 164 -3 0 -52 -16 -110
-36z"/>
</g>
</svg>
